<?xml version="1.0" standalone="no"?>
<!DOCTYPE svg PUBLIC "-//W3C//DTD SVG 20010904//EN"
 "http://www.w3.org/TR/2001/REC-SVG-20010904/DTD/svg10.dtd">
<svg version="1.0" xmlns="http://www.w3.org/2000/svg"
 width="512.000000pt" height="512.000000pt" viewBox="0 0 512.000000 512.000000"
 preserveAspectRatio="xMidYMid meet">
<metadata>
Created by potrace 1.16, written by Peter Selinger 2001-2019
</metadata>
<g transform="translate(0.000000,512.000000) scale(0.100000,-0.100000)"
fill="#000000" stroke="none">
<path d="M3350 4850 c-19 -19 -20 -33 -20 -410 0 -377 1 -391 20 -410 19 -19
33 -20 410 -20 377 0 391 1 410 20 19 19 20 33 20 410 0 377 -1 391 -20 410
-19 19 -33 20 -410 20 -377 0 -391 -1 -410 -20z m780 -410 l0 -370 -370 0
-370 0 0 370 0 370 370 0 370 0 0 -370z"/>
<path d="M810 4690 c-222 -58 -415 -213 -515 -415 -100 -200 -109 -360 -34
-556 93 -241 301 -424 553 -489 152 -39 295 -18 466 67 81 40 109 62 195 148
86 86 108 114 148 195 56 112 87 227 87 320 0 93 -31 208 -87 320 -40 81 -62
109 -148 195 -86 86 -114 108 -195 148 -171 85 -318 106 -470 67z m214 -46
l46 -7 0 -53 c0 -30 -5 -54 -10 -54 -22 0 -100 -84 -116 -125 -20 -55 -8 -99
45 -158 66 -73 82 -77 373 -77 194 0 259 -3 265 -12 4 -7 9 -85 11 -173 4
-178 -6 -241 -58 -350 -64 -135 -201 -260 -342 -315 -129 -50 -309 -61 -465
-28 l-53 11 0 49 c0 43 4 52 34 79 19 16 45 50 57 75 19 41 20 50 10 86 -15
50 -75 116 -126 139 -34 16 -67 19 -217 19 -130 0 -179 3 -185 13 -4 6 -9 84
-11 173 -4 179 6 240 58 348 65 136 201 261 343 316 101 40 241 57 341 44z
m437 -191 c75 -79 89 -106 89 -166 l0 -57 -234 0 c-241 0 -288 6 -306 40 -11
21 -14 149 -4 175 14 35 62 44 244 45 l176 0 35 -37z m-752 -774 c17 -6 36
-19 41 -29 13 -24 13 -156 0 -180 -15 -28 -64 -40 -164 -40 l-92 0 -35 38
c-75 78 -89 105 -89 165 l0 57 154 0 c86 0 167 -5 185 -11z"/>
<path d="M2630 4530 c-18 -18 -20 -33 -20 -170 0 -137 2 -152 20 -170 18 -18
33 -20 170 -20 137 0 152 2 170 20 18 18 20 33 20 170 0 137 -2 152 -20 170
-18 18 -33 20 -170 20 -137 0 -152 -2 -170 -20z m300 -170 l0 -130 -130 0
-130 0 0 130 0 130 130 0 130 0 0 -130z"/>
<path d="M3990 3730 c-19 -19 -20 -33 -20 -210 0 -177 1 -191 20 -210 19 -19
33 -20 210 -20 177 0 191 1 210 20 19 19 20 33 20 210 0 177 -1 191 -20 210
-19 19 -33 20 -210 20 -177 0 -191 -1 -210 -20z m380 -210 l0 -170 -170 0
-170 0 0 170 0 170 170 0 170 0 0 -170z"/>
<path d="M2250 3570 c-41 -11 -118 -41 -170 -66 -82 -41 -109 -61 -196 -148
-87 -87 -107 -114 -148 -196 -61 -125 -86 -226 -86 -352 0 -91 -1 -98 -20 -98
-11 0 -29 -9 -40 -20 -19 -19 -20 -33 -20 -250 0 -217 1 -231 20 -250 11 -11
28 -20 39 -20 16 0 19 -11 24 -92 10 -154 65 -312 157 -449 55 -81 189 -213
262 -259 l57 -35 1 -152 0 -153 -168 0 c-188 0 -232 -9 -344 -67 -124 -65
-229 -197 -272 -342 -22 -75 -23 -318 -1 -347 15 -19 15 -19 30 0 11 15 15 49
15 145 1 237 28 330 124 427 102 101 187 123 476 124 l175 0 77 -77 78 -77 98
32 c54 18 118 32 142 32 24 0 88 -14 142 -32 l98 -32 78 77 77 77 175 0 c289
-1 374 -23 476 -124 96 -97 123 -190 124 -427 0 -96 4 -130 15 -145 15 -19 15
-19 30 0 22 29 21 272 -1 347 -43 145 -148 277 -272 342 -112 58 -156 67 -344
67 l-168 0 0 153 1 152 57 35 c73 46 207 178 262 259 92 137 147 295 157 449
5 81 8 92 24 92 11 0 28 9 39 20 19 19 20 33 20 250 0 217 -1 231 -20 250 -11
11 -29 20 -40 20 -18 0 -20 7 -20 88 -1 213 -128 385 -335 453 l-65 22 0 138
c0 126 -2 141 -20 159 -19 19 -33 20 -372 19 -315 0 -361 -2 -428 -19z m760
-180 c0 -163 5 -174 87 -185 120 -17 193 -57 250 -139 44 -64 53 -100 60 -238
l6 -118 -55 0 c-48 0 -56 3 -66 24 -19 42 -76 99 -117 117 -37 17 -80 19 -615
19 -535 0 -578 -2 -615 -19 -41 -18 -98 -75 -117 -117 -10 -21 -18 -24 -65
-24 l-53 0 0 73 c0 131 18 254 49 332 85 219 292 380 520 404 42 5 223 9 404
10 l327 1 0 -140z m184 -594 c52 -22 56 -46 56 -358 0 -313 -4 -337 -60 -357
-46 -16 -1214 -16 -1260 0 -56 20 -60 44 -60 357 0 309 4 336 54 358 46 20
1221 20 1270 0z m-1394 -356 l0 -210 -80 0 -80 0 0 210 0 210 80 0 80 0 0
-210z m1680 0 l0 -210 -80 0 -80 0 0 210 0 210 80 0 80 0 0 -210z m-1650 -298
c0 -20 77 -96 114 -113 38 -17 79 -19 616 -19 537 0 578 2 616 19 37 17 114
93 114 113 0 4 25 8 55 8 l55 0 0 -91 c0 -115 -22 -212 -72 -319 -80 -174
-200 -296 -373 -380 -133 -64 -223 -84 -395 -84 -171 0 -262 20 -395 84 -172
84 -281 193 -365 365 -58 119 -80 212 -80 334 l0 91 55 0 c30 0 55 -4 55 -8z
m533 -904 c63 -18 109 -23 197 -23 88 0 134 5 197 23 45 12 103 22 128 22 l45
0 0 -132 0 -132 -52 -53 c-49 -50 -55 -53 -102 -53 -27 0 -87 12 -133 27 l-83
27 -83 -27 c-46 -15 -105 -27 -132 -27 -46 0 -53 4 -102 52 l-53 52 0 133 0
133 45 0 c25 0 83 -10 128 -22z"/>
<path d="M2154 2455 c-19 -15 -19 -15 0 -30 17 -13 78 -15 406 -15 328 0 389
2 406 15 19 15 19 15 0 30 -17 13 -78 15 -406 15 -328 0 -389 -2 -406 -15z"/>
<path d="M3830 2690 c-20 -20 -20 -33 -20 -570 0 -537 0 -550 20 -570 20 -20
33 -20 610 -20 577 0 590 0 610 20 11 11 31 20 45 20 l25 0 0 550 0 550 -25 0
c-14 0 -34 9 -45 20 -20 20 -33 20 -610 20 -577 0 -590 0 -610 -20z m1180
-130 l0 -90 -570 0 -570 0 0 90 0 90 570 0 570 0 0 -90z m0 -560 l0 -410 -570
0 -570 0 0 410 0 410 570 0 570 0 0 -410z"/>
<path d="M4160 2135 c-10 -12 -10 -18 0 -30 10 -13 54 -15 279 -15 222 0 270
3 287 15 19 15 19 15 0 30 -17 12 -65 15 -287 15 -225 0 -269 -2 -279 -15z"/>
<path d="M4160 1895 c-10 -12 -10 -18 0 -30 10 -12 41 -15 159 -15 116 0 151
3 167 15 19 15 19 15 0 30 -16 12 -51 15 -167 15 -118 0 -149 -3 -159 -15z"/>
<path d="M70 2530 c-11 -11 -31 -20 -45 -20 l-25 0 0 -470 0 -470 25 0 c14 0
34 -9 45 -20 20 -20 33 -20 610 -20 577 0 590 0 610 20 19 19 20 33 20 490 0
457 -1 471 -20 490 -20 20 -33 20 -610 20 -577 0 -590 0 -610 -20z m1180 -390
l0 -350 -52 0 -53 0 -89 135 c-49 74 -92 135 -96 135 -4 0 -49 -63 -100 -140
l-93 -140 -57 0 -57 0 -43 60 c-24 33 -46 60 -49 60 -4 0 -58 -70 -121 -155
l-115 -154 -107 -1 -108 0 0 450 0 450 570 0 570 0 0 -350z m-157 -328 c71
-109 77 -122 77 -170 l0 -52 -210 0 -210 0 0 52 c0 48 6 61 78 170 l77 118 55
0 55 0 78 -118z m-455 -62 c25 -33 31 -127 10 -148 -8 -8 -47 -12 -110 -12
l-98 0 0 51 c0 41 6 59 32 95 31 43 33 44 88 44 51 0 58 -3 78 -30z"/>
</g>
</svg>
